<svg xmlns="http://www.w3.org/2000/svg" viewBox="-130 -20 260 40" width="260" height="40" aria-hidden="true"><path d="M-128 0 H-96 M96 0 H128" stroke="#f0b43c" stroke-width="1.5" stroke-linecap="round"/><g transform="scale(-1 1)"><path d="M16 0 H74" stroke="#f0b43c" stroke-width="2" stroke-linecap="round"/><g transform="translate(26 0) rotate(50)"><ellipse cx="0" cy="-7" rx="3.6" ry="8" fill="#f0b43c"/></g><g transform="translate(30 0) rotate(130)"><ellipse cx="0" cy="-7" rx="3.6" ry="8" fill="#f0b43c"/></g><g transform="translate(40 0) rotate(50)"><ellipse cx="0" cy="-7" rx="3.6" ry="8" fill="#f0b43c"/></g><g transform="translate(44 0) rotate(130)"><ellipse cx="0" cy="-7" rx="3.6" ry="8" fill="#f0b43c"/></g><g transform="translate(54 0) rotate(50)"><ellipse cx="0" cy="-7" rx="3.6" ry="8" fill="#f0b43c"/></g><g transform="translate(58 0) rotate(130)"><ellipse cx="0" cy="-7" rx="3.6" ry="8" fill="#f0b43c"/></g><ellipse cx="80" cy="0" rx="8" ry="3.4" fill="#f0b43c"/></g><path d="M16 0 H74" stroke="#f0b43c" stroke-width="2" stroke-linecap="round"/><g transform="translate(26 0) rotate(50)"><ellipse cx="0" cy="-7" rx="3.6" ry="8" fill="#f0b43c"/></g><g transform="translate(30 0) rotate(130)"><ellipse cx="0" cy="-7" rx="3.6" ry="8" fill="#f0b43c"/></g><g transform="translate(40 0) rotate(50)"><ellipse cx="0" cy="-7" rx="3.6" ry="8" fill="#f0b43c"/></g><g transform="translate(44 0) rotate(130)"><ellipse cx="0" cy="-7" rx="3.6" ry="8" fill="#f0b43c"/></g><g transform="translate(54 0) rotate(50)"><ellipse cx="0" cy="-7" rx="3.6" ry="8" fill="#f0b43c"/></g><g transform="translate(58 0) rotate(130)"><ellipse cx="0" cy="-7" rx="3.6" ry="8" fill="#f0b43c"/></g><ellipse cx="80" cy="0" rx="8" ry="3.4" fill="#f0b43c"/><polygon fill="#f0b43c" points="0,-9 2.4,-3.3 8.6,-2.8 3.9,1.3 5.3,7.3 0,4 -5.3,7.3 -3.9,1.3 -8.6,-2.8 -2.4,-3.3"/></svg>